# xmcd
#
# Track frame offsets:
#	150
#	10142
#	20709
#	31483
#	41729
#	51372
#	62561
#	75664
#	89826
#	101226
#	113785
#	124311
#	137051
#	149761
#	164577
#	174844
#	187349
#	199860
#	215715
#	226629
#	240186
#	255150
#	268152
#	278506
#	288671
#	301518
#
# Disc length: 4161 seconds
#
# Revision: 1
# Processed by: cddbd v1.5.2PL0 Copyright (c) Steve Scherf et al.
# Submitted via: audiograbber 1.83.01
#
DISCID=7f103f1a
DTITLE=Various Artist - Mo' Sounds From Mo' Shadows Of Motwon
DYEAR=2009
DGENRE=Soul
TTITLE0=Charlie Gabriel - Two Way Pa-Ka Way
TTITLE1=Othea George - What's The Matter With Me
TTITLE2=Johnnie Mae Mathews - No One Can Love Me
TTITLE3=Hindal Butts Trio - Back Up Baby
TTITLE4=Buddy Lamp - MyTears
TTITLE5=Little Daddy Walton and Sons - Highway Blues
TTITLE6=Timmy Shaw - Thunder In My Heart
TTITLE7=Detroit Motor City Singers - Another Soldier
TTITLE8=Hank Marr - The Out Crowd
TTITLE9=Fabulous Peps - Love Of My Life
TTITLE10=Emanuel Lasky - (I've Got To) Run For Life
TTITLE11=Eddie Parker - Love You Baby
TTITLE12=Embraceables - Let My Baby Go
TTITLE13=Majjestees - Let Her Go
TTITLE14=Pat Lewis - Warning
TTITLE15=Edwin Starr - You're My Mellow
TTITLE16=Jimmy Ruffin - I Gotta Cover A Whole Lotta Ground
TTITLE17=Gloria Taylor - What I Want
TTITLE18=Neil Reed - Gonna Find A Way
TTITLE19=Wilson Harris and The Experience - Smokin' So Hard It's Right Funky
TTITLE20=Electric Banana - Will I Ever Be Free
TTITLE21=Magictones - My Dreams Have Got The Best Of Me
TTITLE22=Capitols - Don't Say Maybe Baby
TTITLE23=Four Voices - Your Love Is Getting Stronger
TTITLE24=Funkadelic - Fish, Chips And Sweat
TTITLE25=Roy Handy - Baby That's A Groove
EXTD=26 Soul Obscurities On Tiny Detroit Labels
EXTT0=
EXTT1=
EXTT2=
EXTT3=
EXTT4=
EXTT5=
EXTT6=
EXTT7=
EXTT8=
EXTT9=
EXTT10=
EXTT11=
EXTT12=
EXTT13=
EXTT14=
EXTT15=
EXTT16=
EXTT17=
EXTT18=
EXTT19=
EXTT20=
EXTT21=
EXTT22=
EXTT23=
EXTT24=
EXTT25=
PLAYORDER=
